<svg xmlns="http://www.w3.org/2000/svg" xmlns:xlink="http://www.w3.org/1999/xlink" xmlns:ev="http://www.w3.org/2001/xml-events" width="1132.51968503937" height="804" viewBox="0 0 1132.51968503937 804"><defs><linearGradient id="watermark_linear" x1="50.1818" y1="56" x2="3.49747" y2="-11.9045" gradientUnits="userSpaceOnUse"><stop stop-color="#0066FF"/><stop offset="1" stop-color="#66CCFF"/></linearGradient></defs><g transform="translate(5,5)" id="page1"><rect x="0" y="0" width="1123" height="794" fill="#ffffff"/><g transform="translate(295.74,113.15)" id="group1"><g transform="matrix(1.00,0.00,0.00,1.00,0.0,0.0)" id="shape2"><path stroke="#101843" d="M11.3,0L276.6,0C282.9,0,288,5,288,11.3L288,574.6C288,580.9,282.9,586,276.6,586L11.3,586C5,586,0,580.9,0,574.6L0,11.3C0,5,5,0,11.3,0Z" fill="none"/></g><g transform="translate(10.00,0.00)" id="shape3"><text xmlns="http://www.w3.org/2000/svg" xml:space="preserve"><tspan x="32.53125" y="19.40625" textLength="202.921875" style="fill:rgb(25, 25, 25);font-family:Arial;font-size:12pt;font-weight:normal;">Data Store/ Data Processing</tspan></text></g></g><g transform="translate(347.74,171.15)" id="shape4"><path fill="#ffffff" d="M0,20.6L0,74.4C0,85.8,40.9,95,91.5,95C142.1,95,183.1,85.8,183.1,74.4L183.1,20.6C183.1,9.2,142.1,0,91.5,0C40.9,-0.1,0,9.2,0,20.6Z"/><path stroke="#000000" d="M0,20.6L0,74.4C0,85.8,40.9,95,91.5,95C142.1,95,183.1,85.8,183.1,74.4L183.1,20.6C183.1,9.2,142.1,0,91.5,0C40.9,-0.1,0,9.2,0,20.6ZM0,20.6C0,32,40.9,41.2,91.5,41.2C142.1,41.2,183.1,32,183.1,20.6" fill="none"/><text xmlns="http://www.w3.org/2000/svg" xml:space="preserve"><tspan x="30.49178649958037" y="67.30181420201225" textLength="122.15625" style="fill:rgb(25, 25, 25);font-family:Arial;font-size:12pt;font-weight:normal;">AWS DynamoDB</tspan></text></g><g transform="translate(347.74,566.06)" id="shape5"><path fill="#ffffff" d="M0,20.6L0,74.4C0,85.8,40.9,95,91.5,95C142.1,95,183.1,85.8,183.1,74.4L183.1,20.6C183.1,9.2,142.1,0,91.5,0C40.9,-0.1,0,9.2,0,20.6Z"/><path stroke="#000000" d="M0,20.6L0,74.4C0,85.8,40.9,95,91.5,95C142.1,95,183.1,85.8,183.1,74.4L183.1,20.6C183.1,9.2,142.1,0,91.5,0C40.9,-0.1,0,9.2,0,20.6ZM0,20.6C0,32,40.9,41.2,91.5,41.2C142.1,41.2,183.1,32,183.1,20.6" fill="none"/><text xmlns="http://www.w3.org/2000/svg" xml:space="preserve"><tspan x="8.804286499580371" y="67.30181420201225" textLength="165.515625" style="fill:rgb(25, 25, 25);font-family:Arial;font-size:12pt;font-weight:normal;">MongoDB Atlas Cluster</tspan></text></g><g transform="translate(980.74,368.15)" id="shape6"><path fill="#ffffff" d="M11.4,7.6C11.3,3.4,14.8,-0.1,19,-0.1C23.1,-0.1,26.6,3.4,26.6,7.5C26.5,11.7,23.1,15.1,18.9,15.1C14.8,15.1,11.4,11.7,11.4,7.6Z"/><path stroke="#101843" d="M11.4,7.6C11.3,3.4,14.8,-0.1,19,-0.1C23.1,-0.1,26.6,3.4,26.6,7.5C26.5,11.7,23.1,15.1,18.9,15.1C14.8,15.1,11.4,11.7,11.4,7.6ZM19,49.4L19,15.2M31.5,76L19,49.4L6.4,76M38,31.9L0,31.9" fill="none"/><text xmlns="http://www.w3.org/2000/svg" xml:space="preserve"><tspan x="2.109375" y="92.40623000000001" textLength="33.796875" style="fill:rgb(25, 25, 25);font-family:Arial;font-size:12pt;font-weight:normal;">User</tspan></text></g><g transform="matrix(-1.00,0.00,0.00,1.00,224.7,182.2)" id="group7"><g transform="matrix(1.00,0.00,0.00,1.00,0.0,0.0)" id="shape8"><path fill="#000000" d="M84,84L95.5,71.4L95.5,-12.6L84,0L84,84Z" stroke="#000000"/></g><g transform="matrix(1.00,0.00,0.00,1.00,0.0,0.0)" id="shape9"><path fill="#000000" d="M0,0L84,0L95.5,-12.6L11.5,-12.6L0,0Z" stroke="#000000"/></g><g transform="translate(0.00,-0.28)" id="shape10"><path fill="#ffffff" d="M0,0L84,0L84,84.5L0,84.5L0,0Z" stroke="#000000"/><text xmlns="http://www.w3.org/2000/svg" transform="matrix(-1.00,0.00,0.00,1.00,84.0,0.0)" xml:space="preserve"><tspan x="25.078125" y="37.09055" textLength="38.28125" style="fill:rgb(25, 25, 25);font-family:Arial;font-size:12pt;font-weight:normal;">Data </tspan><tspan x="6.390625" y="56.27805" textLength="71.21875" style="fill:rgb(25, 25, 25);font-family:Arial;font-size:12pt;font-weight:normal;">Download</tspan></text></g></g><g transform="translate(118.74,352.15)" id="shape12"><path fill="#ffffff" d="M106.6,128C118.4,128,128,118.4,128,106.6L128,21.3C128,9.5,118.4,0,106.6,0L21.3,0C9.5,0,0,9.5,0,21.3L0,106.6C0,118.4,9.5,128,21.3,128L106.6,128Z"/><path stroke="#000000" d="M106.6,128C118.4,128,128,118.4,128,106.6L128,21.3C128,9.5,118.4,0,106.6,0L21.3,0C9.5,0,0,9.5,0,21.3L0,106.6C0,118.4,9.5,128,21.3,128L106.6,128ZM0,36.9L128,36.9" fill="none"/><text xmlns="http://www.w3.org/2000/svg" xml:space="preserve"><tspan x="12.25" y="19.739626" textLength="103.5" style="fill:rgb(25, 25, 25);font-family:Arial;font-size:12pt;font-weight:normal;">XML converter</tspan></text><text xmlns="http://www.w3.org/2000/svg" xml:space="preserve"><tspan x="5.265625" y="54.958248" textLength="117.46875" style="fill:rgb(25, 25, 25);font-family:Arial;font-size:12pt;font-weight:normal;">Data Processing</tspan><tspan x="23.03125" y="74.145748" textLength="81.921875" style="fill:rgb(25, 25, 25);font-family:Arial;font-size:12pt;font-weight:normal;">and Upload</tspan><tspan x="39.078125" y="112.520748" textLength="49.84375" style="fill:rgb(25, 25, 25);font-family:Arial;font-size:12pt;font-weight:normal;">Python</tspan></text></g><g transform="translate(182.74,266.24)" id="shape13"><path stroke="#191919" d="M0,0L0,79" fill="none"/><path stroke-linecap="round" stroke-width="1" fill="#191919" stroke="#191919" d="M3,79L0,84L-3,79L3,79Z"/></g><g transform="translate(375.31,352.15)" id="shape14"><path fill="#ffffff" d="M106.6,128C118.4,128,128,118.4,128,106.6L128,21.3C128,9.5,118.4,0,106.6,0L21.3,0C9.5,0,0,9.5,0,21.3L0,106.6C0,118.4,9.5,128,21.3,128L106.6,128Z"/><path stroke="#000000" d="M106.6,128C118.4,128,128,118.4,128,106.6L128,21.3C128,9.5,118.4,0,106.6,0L21.3,0C9.5,0,0,9.5,0,21.3L0,106.6C0,118.4,9.5,128,21.3,128L106.6,128ZM0,36.9L128,36.9" fill="none"/><text xmlns="http://www.w3.org/2000/svg" xml:space="preserve"><tspan x="27.51562500000003" y="10.145876000000007" textLength="77.421875" style="fill:rgb(25, 25, 25);font-family:Arial;font-size:12pt;font-weight:normal;">Document </tspan><tspan x="24.40625000000003" y="29.33337600000001" textLength="79.1875" style="fill:rgb(25, 25, 25);font-family:Arial;font-size:12pt;font-weight:normal;">Processing</tspan></text><text xmlns="http://www.w3.org/2000/svg" xml:space="preserve"><tspan x="3.5000000000000284" y="54.95824800000002" textLength="118.359375" style="fill:rgb(25, 25, 25);font-family:Arial;font-size:12pt;font-weight:normal;">Field Processing</tspan><tspan x="3.5000000000000284" y="93.33324800000003" textLength="113.953125" style="fill:rgb(25, 25, 25);font-family:Arial;font-size:12pt;font-weight:normal;">Data calculation</tspan><tspan x="3.5000000000000284" y="112.52074800000003" textLength="85.46875" style="fill:rgb(25, 25, 25);font-family:Arial;font-size:12pt;font-weight:normal;">        Python</tspan></text></g><g transform="translate(182.74,480.15)" id="shape15"><path stroke="#191919" d="M0,0L0,133L159,133" fill="none"/><path stroke-linecap="round" stroke-width="1" fill="#191919" stroke="#191919" d="M159,130L164,133L159,136L159,130Z"/></g><g transform="translate(439.31,566.06)" id="shape16"><path stroke="#191919" d="M0,0L0,-80" fill="none"/><path stroke-linecap="round" stroke-width="1" fill="#191919" stroke="#191919" d="M-3,-80L0,-85L3,-80L-3,-80Z"/></g><g transform="translate(439.31,480.15)" id="shape17"><path stroke="#191919" d="M0,0L0,80" fill="none"/><path stroke-linecap="round" stroke-width="1" fill="#191919" stroke="#191919" d="M3,80L0,85L-3,80L3,80Z"/></g><g transform="translate(439.31,352.15)" id="shape18"><path stroke="#191919" d="M0,0L0,-80" fill="none"/><path stroke-linecap="round" stroke-width="1" fill="#191919" stroke="#191919" d="M-3,-80L0,-85L3,-80L-3,-80Z"/></g><g transform="translate(621.74,113.15)" id="group19"><g transform="matrix(1.00,0.00,0.00,1.00,0.0,0.0)" id="shape20"><path stroke="#101843" d="M11.3,0L276.6,0C282.9,0,288,5,288,11.3L288,574.6C288,580.9,282.9,586,276.6,586L11.3,586C5,586,0,580.9,0,574.6L0,11.3C0,5,5,0,11.3,0Z" fill="none"/></g><g transform="translate(10.00,0.00)" id="shape21"><text xmlns="http://www.w3.org/2000/svg" xml:space="preserve"><tspan x="101.21875" y="19.40625" textLength="65.5625" style="fill:rgb(25, 25, 25);font-family:Arial;font-size:12pt;font-weight:normal;">WebApp/</tspan><tspan x="72.140625" y="38.59375" textLength="123.703125" style="fill:rgb(25, 25, 25);font-family:Arial;font-size:12pt;font-weight:normal;">Realtime Queries</tspan></text></g></g><g transform="translate(572.74,376.15)" id="shape22"><path fill="#ffffff" d="M0,25.2L37.8,25.2L22.2,7.2L30,0L60,30L30,60L22.2,52.8L37.8,34.8L0,34.8L0,25.2Z" stroke="#101843"/></g><g transform="translate(901.74,376.15)" id="shape23"><path fill="#ffffff" d="M0,25.2L37.8,25.2L22.2,7.2L30,0L60,30L30,60L22.2,52.8L37.8,34.8L0,34.8L0,25.2Z" stroke="#101843"/></g><g transform="translate(634.24,440.15)" id="group24"><g transform="matrix(1.00,0.00,0.00,1.00,0.0,0.0)" id="shape25"><path stroke="#101843" d="M11.3,0L251.6,0C257.9,0,263,5,263,11.3L263,232.6C263,238.9,257.9,244,251.6,244L11.3,244C5,244,0,238.9,0,232.6L0,11.3C0,5,5,0,11.3,0Z" fill="none"/></g><g transform="translate(10.00,0.00)" id="shape26"><text xmlns="http://www.w3.org/2000/svg" xml:space="preserve"><tspan x="89.453125" y="19.40625" textLength="64.09375" style="fill:rgb(25, 25, 25);font-family:Arial;font-size:12pt;font-weight:normal;">Frontend</tspan></text></g></g><g transform="translate(694.31,542.24)" id="group27"><g transform="translate(23.69,0.31)" id="shape28"><path fill="#ffffff" d="M0,0L94,0L94,55.5L0,55.5L0,0Z" stroke="#000000"/><text xmlns="http://www.w3.org/2000/svg" xml:space="preserve"><tspan x="30.080208600500008" y="22.757364694999996" textLength="54.296875" style="fill:rgb(25, 25, 25);font-family:Arial;font-size:12pt;font-weight:normal;">Apache</tspan><tspan x="30.095833600500008" y="41.94486469499999" textLength="54.265625" style="fill:rgb(25, 25, 25);font-family:Arial;font-size:12pt;font-weight:normal;">Echarts</tspan></text></g><g transform="translate(-0.07,9.09)" id="shape29"><path fill="#ffffff" d="M0,0L47.2,0L47.2,13.9L0,13.9L0,0Z" stroke="#000000"/></g><g transform="translate(-0.07,33.39)" id="shape30"><path fill="#ffffff" d="M0,0L47.2,0L47.2,13.9L0,13.9L0,0Z" stroke="#000000"/></g></g><g transform="translate(694.31,609.24)" id="group31"><g transform="translate(23.69,0.31)" id="shape32"><path fill="#ffffff" d="M0,0L94,0L94,55.5L0,55.5L0,0Z" stroke="#000000"/><text xmlns="http://www.w3.org/2000/svg" xml:space="preserve"><tspan x="38.56458360050001" y="13.163614695" textLength="41.796875" style="fill:rgb(25, 25, 25);font-family:Arial;font-size:12pt;font-weight:normal;">Misc. </tspan><tspan x="38.09583360050001" y="32.351114695" textLength="42.734375" style="fill:rgb(25, 25, 25);font-family:Arial;font-size:12pt;font-weight:normal;">Node </tspan><tspan x="26.080208600500008" y="51.538614695" textLength="62.296875" style="fill:rgb(25, 25, 25);font-family:Arial;font-size:12pt;font-weight:normal;">Package</tspan></text></g><g transform="translate(-0.07,9.09)" id="shape33"><path fill="#ffffff" d="M0,0L47.2,0L47.2,13.9L0,13.9L0,0Z" stroke="#000000"/></g><g transform="translate(-0.07,33.39)" id="shape34"><path fill="#ffffff" d="M0,0L47.2,0L47.2,13.9L0,13.9L0,0Z" stroke="#000000"/></g></g><g transform="translate(694.31,475.24)" id="group35"><g transform="translate(23.69,0.31)" id="shape36"><path fill="#ffffff" d="M0,0L94,0L94,55.5L0,55.5L0,0Z" stroke="#000000"/><text xmlns="http://www.w3.org/2000/svg" xml:space="preserve"><tspan x="36.31458360050001" y="32.35111469499999" textLength="41.828125" style="fill:rgb(25, 25, 25);font-family:Arial;font-size:12pt;font-weight:normal;">React</tspan></text></g><g transform="translate(-0.07,9.09)" id="shape37"><path fill="#ffffff" d="M0,0L47.2,0L47.2,13.9L0,13.9L0,0Z" stroke="#000000"/></g><g transform="translate(-0.07,33.39)" id="shape38"><path fill="#ffffff" d="M0,0L47.2,0L47.2,13.9L0,13.9L0,0Z" stroke="#000000"/></g></g><g transform="translate(644.74,171.15)" id="shape39"><path fill="#ffffff" d="M242,100.6L242,11.3C242,5,236.9,0,230.6,0L11.3,0C5,0,0,5,0,11.3L0,100.6C0,106.9,5,112,11.3,112L230.6,112C236.9,112,242,106.9,242,100.6Z" stroke="#101843"/><text xmlns="http://www.w3.org/2000/svg" xml:space="preserve"><tspan x="95.1875" y="60.40625" textLength="51.609375" style="fill:rgb(25, 25, 25);font-family:Arial;font-size:12pt;font-weight:normal;">Heroku</tspan></text></g><g transform="translate(644.74,307.00)" id="shape40"><path fill="#ffffff" d="M242,100.6L242,11.3C242,5,236.9,0,230.6,0L11.3,0C5,0,0,5,0,11.3L0,100.6C0,106.9,5,112,11.3,112L230.6,112C236.9,112,242,106.9,242,100.6Z" stroke="#101843"/><text xmlns="http://www.w3.org/2000/svg" xml:space="preserve"><tspan x="96.53125" y="60.40625" textLength="48.9375" style="fill:rgb(25, 25, 25);font-family:Arial;font-size:12pt;font-weight:normal;">Next.js</tspan></text></g><g transform="translate(765.74,283.15)" id="shape41"><path stroke="#191919" d="M0,0L0,17" fill="none"/><path stroke-linecap="round" stroke-width="1" fill="#191919" stroke="#191919" d="M3,17L0,22L-3,17L3,17Z"/></g><g transform="translate(765.74,419.00)" id="shape42"><path stroke="#191919" d="M0,0L0,15" fill="none"/><path stroke-linecap="round" stroke-width="1" fill="#191919" stroke="#191919" d="M3,15L0,20L-3,15L3,15Z"/></g></g></svg>